<svg xmlns="http://www.w3.org/2000/svg" viewBox="0 0 64 64" fill="none">
  <circle cx="32" cy="32" r="32" fill="#2775CA"/>
  <path fill="#fff" d="M40.5 36.2c0-2.2-1.3-3.1-4-3.5-2-.3-2.4-.9-2.4-1.9 0-1 .8-1.7 2.2-1.7 1.3 0 2 .4 2.4 1.7.1.2.2.3.5.3h1.1c.3 0 .4-.2.4-.4v-.1c-.2-1.4-1.2-2.5-2.9-2.8v-1.6c0-.2-.2-.4-.5-.4h-1c-.3 0-.4.2-.4.4v1.5c-2.4.3-3.9 1.6-3.9 3.4 0 2.1 1.3 3.2 4 3.6 1.9.3 2.5.8 2.5 2 0 1.2-1 2-2.6 2-2.1 0-2.6-.9-2.8-2.1 0-.2-.2-.3-.4-.3h-1.2c-.3 0-.4.1-.4.4v.1c.3 2.1 1.6 3.4 4.2 3.8v1.6c0 .2.2.4.5.4h1c.3 0 .4-.2.4-.4v-1.6c2.4-.4 4-1.7 4-3.9z"/>
</svg>
